<svg width="56" height="56" viewBox="0 0 56 56" fill="none" xmlns="http://www.w3.org/2000/svg">
<circle cx="28" cy="28" r="28" fill="#D79C05"/>
<path d="M25.5 26.125C25.5 25.462 25.7634 24.8261 26.2322 24.3572C26.7011 23.8884 27.337 23.625 28 23.625C28.663 23.625 29.2989 23.8884 29.7678 24.3572C30.2366 24.8261 30.5 25.462 30.5 26.125M43 23.625H44.25M13 23.625H11.75M13 23.625C13 31.125 14.25 33.625 19.25 33.625C24.25 33.625 25.5 31.125 25.5 23.625C25.5 23.625 24.25 22.375 19.25 22.375C14.25 22.375 13 23.625 13 23.625ZM43 23.625C43 31.125 41.75 33.625 36.75 33.625C31.75 33.625 30.5 31.125 30.5 23.625C30.5 23.625 31.75 22.375 36.75 22.375C41.75 22.375 43 23.625 43 23.625Z" stroke="white" stroke-linecap="round" stroke-linejoin="round"/>
</svg>
