<svg width="56" height="56" viewBox="0 0 56 56" fill="none" xmlns="http://www.w3.org/2000/svg">
<circle cx="28" cy="28" r="28" fill="#D79C05"/>
<path d="M37.6328 22.6469C37.3187 21.9195 36.8657 21.2603 36.2992 20.7063C35.7323 20.1506 35.064 19.709 34.3305 19.4055C33.5699 19.0895 32.7541 18.9278 31.9305 18.9297C30.775 18.9297 29.6477 19.2461 28.668 19.8438C28.4336 19.9867 28.2109 20.1438 28 20.3149C27.7891 20.1438 27.5664 19.9867 27.332 19.8438C26.3523 19.2461 25.225 18.9297 24.0695 18.9297C23.2375 18.9297 22.4312 19.0891 21.6695 19.4055C20.9336 19.7102 20.2703 20.1485 19.7008 20.7063C19.1336 21.2597 18.6805 21.919 18.3672 22.6469C18.0414 23.4039 17.875 24.2078 17.875 25.0352C17.875 25.8156 18.0344 26.6289 18.3508 27.4563C18.6156 28.1477 18.9953 28.8649 19.4805 29.5891C20.2492 30.7352 21.3062 31.9305 22.6187 33.1422C24.7937 35.1508 26.9477 36.5383 27.0391 36.5945L27.5945 36.9508C27.8406 37.1078 28.157 37.1078 28.4031 36.9508L28.9586 36.5945C29.05 36.536 31.2016 35.1508 33.3789 33.1422C34.6914 31.9305 35.7484 30.7352 36.5172 29.5891C37.0023 28.8649 37.3844 28.1477 37.6469 27.4563C37.9633 26.6289 38.1227 25.8156 38.1227 25.0352C38.125 24.2078 37.9586 23.4039 37.6328 22.6469ZM28 35.0969C28 35.0969 19.6562 29.7508 19.6562 25.0352C19.6562 22.6469 21.632 20.711 24.0695 20.711C25.7828 20.711 27.2688 21.6672 28 23.0641C28.7312 21.6672 30.2172 20.711 31.9305 20.711C34.368 20.711 36.3438 22.6469 36.3438 25.0352C36.3438 29.7508 28 35.0969 28 35.0969Z" fill="white"/>
</svg>
