<svg width="56" height="56" viewBox="0 0 56 56" fill="none" xmlns="http://www.w3.org/2000/svg">
<circle cx="28" cy="28" r="28" fill="#D79C05"/>
<path d="M35 29V34C35 34.55 34.55 35 34 35H22C21.45 35 21 34.55 21 34V29C21 28.45 20.55 28 20 28C19.45 28 19 28.45 19 29V35C19 36.1 19.9 37 21 37H35C36.1 37 37 36.1 37 35V29C37 28.45 36.55 28 36 28C35.45 28 35 28.45 35 29ZM29 28.67L30.88 26.79C30.9726 26.6974 31.0825 26.624 31.2035 26.5739C31.3244 26.5238 31.4541 26.498 31.585 26.498C31.7159 26.498 31.8456 26.5238 31.9665 26.5739C32.0875 26.624 32.1974 26.6974 32.29 26.79C32.3826 26.8826 32.456 26.9925 32.5061 27.1135C32.5562 27.2344 32.582 27.3641 32.582 27.495C32.582 27.6259 32.5562 27.7556 32.5061 27.8765C32.456 27.9975 32.3826 28.1074 32.29 28.2L28.7 31.79C28.6075 31.8827 28.4976 31.9563 28.3766 32.0064C28.2557 32.0566 28.126 32.0824 27.995 32.0824C27.864 32.0824 27.7343 32.0566 27.6134 32.0064C27.4924 31.9563 27.3825 31.8827 27.29 31.79L23.7 28.2C23.513 28.013 23.408 27.7594 23.408 27.495C23.408 27.2306 23.513 26.977 23.7 26.79C23.887 26.603 24.1406 26.498 24.405 26.498C24.6694 26.498 24.923 26.603 25.11 26.79L27 28.67V20C27 19.45 27.45 19 28 19C28.55 19 29 19.45 29 20V28.67Z" fill="white"/>
</svg>
